PathFileType	4	(X/Y/Z)	/Users/itak/Documents/Research/Walk-IL/dataset/trc/00199_00008.trc
DataRate	CameraRate	NumFrames	NumMarkers	Units	OrigDataRate	OrigDataStartFrame	OrigNumFrames
100.000000	100.000000	4	53	mm	100.000000	128	514
Frame#	Time	RPSI			LPSI			L3			STRN			T10			C7			CLAV			RBAK			LBAK			LSHO			LUPA			LAEL			LAOL			LWTS			LWPS			LFRA			LIFD			LHPS			LHTS			RSHO			RUPA			RAEL			RAOL			RWTS			RWPS			RFRA			RIFD			RHTS			RHPS			RBHD			LFHD			RFHD			LBHD			LHIP			RHIP			RASI			LASI			LKNE			LTHI			LANK			LTIP			LTOE			LMT1			LMT5			LHEE			RKNE			RTHI			RANK			RTIP			RTOE			RMT1			RMT5			RHEE			
		X1	Y1	Z1	X2	Y2	Z2	X3	Y3	Z3	X4	Y4	Z4	X5	Y5	Z5	X6	Y6	Z6	X7	Y7	Z7	X8	Y8	Z8	X9	Y9	Z9	X10	Y10	Z10	X11	Y11	Z11	X12	Y12	Z12	X13	Y13	Z13	X14	Y14	Z14	X15	Y15	Z15	X16	Y16	Z16	X17	Y17	Z17	X18	Y18	Z18	X19	Y19	Z19	X20	Y20	Z20	X21	Y21	Z21	X22	Y22	Z22	X23	Y23	Z23	X24	Y24	Z24	X25	Y25	Z25	X26	Y26	Z26	X27	Y27	Z27	X28	Y28	Z28	X29	Y29	Z29	X30	Y30	Z30	X31	Y31	Z31	X32	Y32	Z32	X33	Y33	Z33	X34	Y34	Z34	X35	Y35	Z35	X36	Y36	Z36	X37	Y37	Z37	X38	Y38	Z38	X39	Y39	Z39	X40	Y40	Z40	X41	Y41	Z41	X42	Y42	Z42	X43	Y43	Z43	X44	Y44	Z44	X45	Y45	Z45	X46	Y46	Z46	X47	Y47	Z47	X48	Y48	Z48	X49	Y49	Z49	X50	Y50	Z50	X51	Y51	Z51	X52	Y52	Z52	X53	Y53	Z53	

129	1.28	-1129.452026367188	1049.625	-435.3990478515625	-1115.706298828125	1052.389892578125	-559.10009765625	-1120.959594726562	1089.123291015625	-496.0089111328125	-860.1395263671875	1293.30078125	-461.3863525390625	-1149.611206054688	1244.751708984375	-509.1579284667969	-1080.783935546875	1514.039428710938	-510.2447204589844	-885.7119140625	1407.126831054688	-473.5465393066406	-1165.382568359375	1337.914428710938	-414.8382568359375	-1070.530517578125	1490.166015625	-610.7938842773438	-981.6318359375	1476.396118164062	-675.7078247070312	-1003.473510742188	1344.261108398438	-752.1442260742188	-994.830078125	1126.646850585938	-766.0098876953125	-1049.216918945312	1113.050537109375	-698.290283203125	-899.0776977539062	889.9056396484375	-724.8895263671875	-975.361083984375	873.61767578125	-774.8435668945312	-983.4805908203125	1016.294494628906	-779.0771484375	-899.7977294921875	705.9034423828125	-700.2500610351562	-956.8134155273438	802.9779052734375	-769.654296875	-888.7830200195312	811.05517578125	-744.4923706054688	-1049.780151367188	1490.108642578125	-321.5389099121094	-1081.469604492188	1423.004272460938	-257.9885864257812	-1111.338256835938	1135.42724609375	-206.1884307861328	-1097.056274414062	1127.544555664062	-303.2113647460938	-964.1117553710938	912.7550048828125	-201.8686828613281	-1043.577880859375	892.8985595703125	-166.4099273681641	-1088.369506835938	1062.983032226562	-183.0528869628906	-942.3526000976562	721.9707641601562	-224.0164947509766	-937.246337890625	819.3076782226562	-191.6550598144531	-1012.809204101562	811.4325561523438	-164.4489440917969	-1046.849365234375	1672.92919921875	-433.5215454101562	-855.5033569335938	1727.044677734375	-519.439697265625	-886.494140625	1724.774169921875	-393.7031555175781	-1021.816467285156	1682.602172851562	-568.6262817382812	-1008.521362304688	987.8519287109375	-668.4025268554688	-985.1231689453125	1011.618347167969	-297.9115295410156	-901.283203125	1034.37841796875	-347.1417846679688	-886.5677490234375	1024.165405273438	-604.8617553710938	-1008.026000976562	490.0789489746094	-693.0750732421875	-993.5831298828125	636.4557495117188	-694.1824951171875	-1395.669555664062	213.9964294433594	-635.5272827148438	-1195.052856445312	345.959716796875	-682.9140014648438	-1289.524169921875	33.6174430847168	-676.6651000976562	-1295.756469726562	66.16004943847656	-619.679443359375	-1369.376586914062	121.3475341796875	-700.515869140625	-1395.8935546875	246.0695037841797	-557.2310791015625	-869.4482421875	517.965576171875	-344.8161926269531	-897.314453125	785.5335693359375	-292.9115905761719	-921.2005615234375	32.68380737304688	-390.8362426757812	-844.7078247070312	397.6220092773438	-366.2199096679688	-698.5823364257812	51.49358749389648	-377.6379699707031	-740.3915405273438	43.11398315429688	-432.5058288574219	-818.7437744140625	39.37092971801758	-335.7069702148438	-952.3485717773438	31.65998077392578	-469.5295104980469	
130	1.29	-1121.462280273438	1049.919311523438	-432.3522033691406	-1107.538818359375	1052.317626953125	-555.9850463867188	-1112.861450195312	1089.342651367188	-492.9253234863281	-852.3945922851562	1293.724609375	-457.8970947265625	-1141.683837890625	1245.081787109375	-505.9993286132812	-1073.064575195312	1514.446166992188	-506.9720153808594	-877.9873046875	1407.542724609375	-470.0511779785156	-1157.625366210938	1338.195556640625	-411.6526489257812	-1062.70068359375	1490.489379882812	-607.5764770507812	-973.6026000976562	1476.550537109375	-672.3499145507812	-995.2015991210938	1344.228149414062	-748.4682006835938	-985.4375610351562	1126.575805664062	-762.23876953125	-1039.79443359375	1112.684814453125	-694.5484619140625	-886.5350341796875	891.3742065429688	-719.893310546875	-962.7243041992188	873.6497802734375	-769.7188110351562	-972.8489990234375	1016.171752929688	-774.7862548828125	-883.9718017578125	707.8612670898438	-694.4727172851562	-943.122314453125	803.3783569335938	-764.2122802734375	-875.1327514648438	812.66748046875	-739.3094482421875	-1042.227783203125	1490.46484375	-318.2068176269531	-1073.727294921875	1423.256713867188	-254.5649108886719	-1102.28564453125	1135.671752929688	-201.5468139648438	-1088.187866210938	1127.432495117188	-298.5621032714844	-952.61279296875	914.7367553710938	-196.4608154296875	-1031.885864257812	893.9595336914062	-161.1431884765625	-1078.60009765625	1063.4619140625	-178.2092742919922	-928.051025390625	724.295654296875	-217.5615081787109	-924.4383544921875	821.8611450195312	-185.6527252197266	-999.9951782226562	812.9794921875	-158.70361328125	-1039.420654296875	1673.298095703125	-430.0328063964844	-847.9440307617188	1727.718017578125	-515.4132080078125	-879.217041015625	1725.17919921875	-389.7611694335938	-1014.144714355469	1683.221801757812	-565.0385131835938	-999.8414916992188	987.3712158203125	-664.9220581054688	-977.2748413085938	1012.18212890625	-294.4382629394531	-893.0099487304688	1035.0068359375	-343.9660339355469	-878.3529663085938	1024.619018554688	-601.4509887695312	-987.7662353515625	489.1522827148438	-691.1483764648438	-976.9174194335938	635.9266357421875	-692.1302490234375	-1378.687744140625	219.0604858398438	-633.5382080078125	-1176.180541992188	347.1887512207031	-681.0013427734375	-1273.474975585938	36.54277420043945	-674.7532348632812	-1280.526733398438	70.32764434814453	-617.3198852539062	-1352.787841796875	127.0007781982422	-698.7420654296875	-1380.027099609375	251.1697235107422	-555.442138671875	-865.1951904296875	517.4923095703125	-343.5433044433594	-890.4758911132812	785.31591796875	-290.6708068847656	-921.0352172851562	32.80072402954102	-390.812255859375	-841.5386962890625	397.0036010742188	-365.4754638671875	-697.9945068359375	50.42889785766602	-377.9833984375	-740.1025390625	42.69638061523438	-432.8795471191406	-818.4183349609375	39.39814758300781	-335.832275390625	-952.4159545898438	31.80290603637695	-469.2695007324219	
131	1.3	-1113.637817382812	1050.194091796875	-429.4200439453125	-1099.498046875	1052.249877929688	-552.9677734375	-1104.923706054688	1089.556640625	-489.9432373046875	-844.762451171875	1294.089233398438	-454.533203125	-1133.876098632812	1245.4248046875	-502.9062805175781	-1065.3984375	1514.832641601562	-503.7692565917969	-870.3413696289062	1407.905639648438	-466.6590270996094	-1149.953125	1338.499877929688	-408.5201721191406	-1054.95654296875	1490.791259765625	-604.4338989257812	-965.656005859375	1476.637329101562	-669.0792846679688	-987.0278930664062	1344.12744140625	-744.8715209960938	-976.065673828125	1126.449951171875	-758.53564453125	-1030.438232421875	1112.240112304688	-690.9038696289062	-873.8975219726562	892.9071044921875	-714.9551391601562	-950.0021362304688	873.6860961914062	-764.6343383789062	-962.2002563476562	1016.018798828125	-770.5573120117188	-867.8433227539062	709.9730834960938	-688.8222045898438	-929.303955078125	803.8281860351562	-758.8355712890625	-861.39697265625	814.3763427734375	-734.2095947265625	-1034.685424804688	1490.806762695312	-314.9421691894531	-1065.994506835938	1423.502319335938	-251.1958160400391	-1093.219604492188	1135.908325195312	-196.985595703125	-1079.292724609375	1127.308349609375	-293.9933166503906	-941.2089233398438	916.6978759765625	-191.0497894287109	-1020.30859375	895.0382080078125	-155.9217224121094	-1068.87060546875	1063.950073242188	-173.4502868652344	-913.8745727539062	726.660888671875	-211.0887908935547	-911.7674560546875	824.4059448242188	-179.6180267333984	-987.3338623046875	814.5396118164062	-152.9847259521484	-1032.001586914062	1673.608764648438	-426.5869750976562	-840.3859252929688	1728.339965820312	-511.4093627929688	-871.9357299804688	1725.496215820312	-385.8407287597656	-1006.4873046875	1683.828247070312	-561.49365234375	-991.2706298828125	986.906494140625	-661.55908203125	-969.6482543945312	1012.682861328125	-291.0990600585938	-884.9395141601562	1035.64404296875	-340.8908386230469	-870.2841796875	1025.045166015625	-598.1597290039062	-967.3280639648438	488.4067993164062	-688.6586303710938	-960.1647338867188	635.5264282226562	-689.7152099609375	-1360.747680664062	222.7550506591797	-631.8363647460938	-1156.66357421875	348.0623474121094	-678.8031005859375	-1254.802612304688	39.97804641723633	-672.1573486328125	-1263.2265625	74.33948516845703	-614.4136352539062	-1334.10400390625	131.4960479736328	-696.9376220703125	-1363.854248046875	255.221435546875	-554.1417236328125	-861.2584838867188	517.0115356445312	-342.2291564941406	-883.9080810546875	785.0604248046875	-288.3987731933594	-920.9028930664062	32.89831924438477	-390.7874755859375	-838.6172485351562	396.4019470214844	-364.6753845214844	-697.4789428710938	49.4190673828125	-378.2608337402344	-739.837890625	42.35712814331055	-433.1877136230469	-818.1580810546875	39.38882446289062	-335.9217529296875	-952.4928588867188	31.93912696838379	-469.0335083007812	
132	1.31	-1105.9541015625	1050.460815429688	-426.5961608886719	-1091.56640625	1052.21630859375	-550.0427856445312	-1097.12158203125	1089.782104492188	-487.0505065917969	-837.2229614257812	1294.438720703125	-451.2903442382812	-1126.176147460938	1245.7919921875	-499.8761901855469	-1057.791259765625	1515.219360351562	-500.642822265625	-862.7684326171875	1408.25830078125	-463.3746032714844	-1142.3603515625	1338.8427734375	-405.4432067871094	-1047.301147460938	1491.094604492188	-601.3653564453125	-957.8145751953125	1476.717163085938	-665.9017944335938	-978.9490356445312	1344.015502929688	-741.3679809570312	-966.719482421875	1126.324096679688	-754.89501953125	-1021.143432617188	1111.775512695312	-687.3458862304688	-861.220947265625	894.5457763671875	-710.0780029296875	-937.2286987304688	873.7880249023438	-759.5975341796875	-951.5467529296875	1015.896057128906	-766.3878784179688	-851.5643310546875	712.234619140625	-683.3108520507812	-915.3826904296875	804.379638671875	-753.5332641601562	-847.6091918945312	816.2255249023438	-729.1715698242188	-1027.166381835938	1491.16259765625	-311.75830078125	-1058.282958984375	1423.77392578125	-247.8924560546875	-1084.143676757812	1136.171264648438	-192.5249328613281	-1070.36669921875	1127.2099609375	-289.5235290527344	-929.9225463867188	918.650390625	-185.6632232666016	-1008.867492675781	896.1552734375	-150.7595825195312	-1059.18994140625	1064.4775390625	-168.7928161621094	-899.876220703125	729.0875854492188	-204.6343688964844	-899.27392578125	826.941162109375	-173.5902862548828	-974.8572387695312	816.127685546875	-147.313720703125	-1024.587646484375	1673.892700195312	-423.1935424804688	-832.81298828125	1728.924194335938	-507.4270629882812	-864.64013671875	1725.736938476562	-381.9422302246094	-998.83056640625	1684.463134765625	-558.0001831054688	-982.8036499023438	986.5316162109375	-658.3196411132812	-962.2520141601562	1013.099670410156	-287.8816528320312	-877.091064453125	1036.29638671875	-337.8577575683594	-862.3369140625	1025.487060546875	-594.9444580078125	-946.776611328125	487.9158630371094	-685.6009521484375	-943.4033813476562	635.318603515625	-686.90478515625	-1341.943481445312	225.0940856933594	-630.3790893554688	-1136.538940429688	348.6010131835938	-676.3206787109375	-1233.720336914062	43.58083343505859	-668.9325561523438	-1243.946166992188	78.05641937255859	-611.042724609375	-1313.533447265625	134.7549285888672	-695.0584716796875	-1347.294067382812	258.1404418945312	-553.2694702148438	-857.6468505859375	516.520263671875	-340.8831481933594	-877.6023559570312	784.75830078125	-286.081787109375	-920.79150390625	32.98776245117188	-390.7696838378906	-835.945068359375	395.8176574707031	-363.8358459472656	-697.0249633789062	48.44268035888672	-378.48681640625	-739.5916748046875	42.06485366821289	-433.4400329589844	-817.9495239257812	39.35227584838867	-335.9791870117188	-952.5689086914062	32.0699462890625	-468.836181640625	
